<svg width="28" height="28" viewBox="0 0 28 28" fill="none" xmlns="http://www.w3.org/2000/svg">
    <path fill-rule="evenodd" clip-rule="evenodd" d="M14 0C21.732 0 28 6.268 28 14C28 21.732 21.732 28 14 28C6.268 28 0 21.732 0 14C0 6.268 6.268 0 14 0Z" fill="#FF4E26"/>
    <path d="M17.2414 9.28984L14.8414 10.25L17.2414 11.2094C17.3813 11.2646 17.4619 11.4116 17.4334 11.5592C17.4049 11.7068 17.2753 11.8133 17.125 11.8125C17.0851 11.8127 17.0456 11.8049 17.0086 11.7898L14 10.5867L10.9914 11.7898C10.9545 11.8049 10.9149 11.8127 10.875 11.8125C10.7247 11.8133 10.5951 11.7068 10.5666 11.5592C10.5381 11.4116 10.6188 11.2646 10.7586 11.2094L13.1586 10.25L10.7586 9.28984C10.5983 9.22512 10.5208 9.04271 10.5856 8.88242C10.6503 8.72213 10.8327 8.64466 10.993 8.70937L14 9.91328L17.0086 8.70937C17.1688 8.6448 17.3511 8.72229 17.4158 8.8825C17.4805 9.04272 17.4031 9.22505 17.243 9.28984H17.2414ZM21.1875 10.2273C21.193 15.7805 19.3781 20.3891 17.6211 21.6375C17.3481 21.8319 16.9907 21.8619 16.6891 21.7156C16.3801 21.5734 16.1734 21.2737 16.15 20.9344C16.0586 19.6977 15.6664 16.8125 14 16.8125C12.3336 16.8125 11.9414 19.6984 11.85 20.9391C11.8126 21.43 11.4049 21.8102 10.9125 21.8133C10.7211 21.8129 10.5346 21.7528 10.3789 21.6414C8.62189 20.3914 6.80704 15.782 6.81251 10.2352C6.82069 7.9973 8.63714 6.18748 10.875 6.1875H17.125C19.361 6.18748 21.1767 7.99445 21.1875 10.2305V10.2273ZM20.5625 10.2273C20.5501 8.33772 19.0147 6.81246 17.125 6.8125H10.875C8.98383 6.81247 7.44782 8.3401 7.43751 10.2313C7.43204 15.5109 9.14845 19.9969 10.7414 21.1305C10.83 21.1949 10.9471 21.2048 11.0453 21.1563C11.1494 21.1084 11.219 21.0073 11.2266 20.893C11.45 17.8586 12.4375 16.1875 14 16.1875C15.5625 16.1875 16.55 17.8594 16.7735 20.8938C16.781 21.0081 16.8506 21.1091 16.9547 21.157C17.0529 21.2056 17.17 21.1957 17.2586 21.1312C18.8516 20 20.568 15.5109 20.5625 10.2313V10.2273Z" fill="white"/>
</svg>
